<svg xmlns="http://www.w3.org/2000/svg" width="100" height="100" viewBox="0 0 100 100">
  <g id="Group_3" data-name="Group 3" transform="translate(-1550 -570)">
    <g id="Ellipse_1" data-name="Ellipse 1" transform="translate(1550 570)" fill="none" stroke="#fff" stroke-width="2">
      <circle cx="50" cy="50" r="50" stroke="none"/>
      <circle cx="50" cy="50" r="49" fill="none"/>
    </g>
    <g id="Intersection_1" data-name="Intersection 1" transform="translate(3687 1778)" fill="#fff">
      <path d="M -2087.000244140625 -1108.999877929688 C -2091.299560546875 -1108.999877929688 -2095.5654296875 -1109.55712890625 -2099.67919921875 -1110.656127929688 C -2103.66943359375 -1111.722045898438 -2107.518798828125 -1113.29736328125 -2111.120361328125 -1115.338256835938 C -2117.9365234375 -1119.200561523438 -2123.77587890625 -1124.689331054688 -2128.060546875 -1131.25 C -2125.75048828125 -1132.760009765625 -2123.193115234375 -1134.145874023438 -2120.44482421875 -1135.376708984375 C -2117.34130859375 -1136.7666015625 -2113.9814453125 -1137.964477539062 -2110.45849609375 -1138.936767578125 C -2103.09423828125 -1140.969360351562 -2095.201904296875 -1142 -2087.000244140625 -1142 C -2078.79833984375 -1142 -2070.905517578125 -1140.969360351562 -2063.541015625 -1138.936645507812 C -2060.01806640625 -1137.964233398438 -2056.658203125 -1136.766479492188 -2053.5546875 -1135.376586914062 C -2050.806396484375 -1134.145629882812 -2048.2490234375 -1132.759765625 -2045.93896484375 -1131.249877929688 C -2050.2236328125 -1124.689086914062 -2056.063232421875 -1119.200439453125 -2062.879150390625 -1115.338134765625 C -2066.48095703125 -1113.297241210938 -2070.330322265625 -1111.722045898438 -2074.320556640625 -1110.656005859375 C -2078.4345703125 -1109.55712890625 -2082.70068359375 -1108.999877929688 -2087.000244140625 -1108.999877929688 Z" stroke="none"/>
      <path d="M -2087.000244140625 -1141 C -2102.091552734375 -1141 -2116.409423828125 -1137.357055664062 -2126.662109375 -1130.95703125 C -2122.52197265625 -1124.900512695312 -2117.011962890625 -1119.826171875 -2110.62744140625 -1116.208251953125 C -2107.099609375 -1114.209228515625 -2103.329345703125 -1112.666259765625 -2099.421142578125 -1111.622192382812 C -2095.3916015625 -1110.545654296875 -2091.212646484375 -1109.999877929688 -2087.000244140625 -1109.999877929688 C -2082.78759765625 -1109.999877929688 -2078.6083984375 -1110.545654296875 -2074.578857421875 -1111.622192382812 C -2070.67041015625 -1112.666259765625 -2066.89990234375 -1114.209106445312 -2063.372314453125 -1116.208129882812 C -2056.987548828125 -1119.825927734375 -2051.4775390625 -1124.900268554688 -2047.33740234375 -1130.956787109375 C -2057.590087890625 -1137.35693359375 -2071.908203125 -1141 -2087.000244140625 -1141 M -2087.000244140625 -1143 C -2070.038818359375 -1143 -2054.838134765625 -1138.556030273438 -2044.56884765625 -1131.536865234375 C -2053.403076171875 -1117.40283203125 -2069.103759765625 -1107.999877929688 -2087.000244140625 -1107.999877929688 C -2104.895751953125 -1107.999877929688 -2120.596435546875 -1117.403076171875 -2129.4306640625 -1131.537109375 C -2119.1611328125 -1138.556274414062 -2103.9609375 -1143 -2087.000244140625 -1143 Z" stroke="none" fill="#fff"/>
    </g>
    <circle id="Ellipse_4" data-name="Ellipse 4" cx="22.5" cy="22.5" r="22.5" transform="translate(1578 586)" fill="#fff"/>
  </g>
</svg>
